# xmcd
#
# Track frame offsets: 
#        150
#        16790
#        29310
#        48665
#        57502
#        85037
#        104090
#        126657
#        152092
#        167082
#
# Disc length: 2284 seconds
#
# Revision: 11
# Processed by: cddbd v1.5.2PL0 Copyright (c) Steve Scherf et al.
# Submitted via: ExactAudioCopy v0.95b3
#
DISCID=8408ea0a
DTITLE=Jethro Tull - This Was [1993 Jap]
DYEAR=1968
DGENRE=Rock
TTITLE0=My Sunday Feeling
TTITLE1=Some Day The Sun Won't Shine For You
TTITLE2=Beggar's Farm
TTITLE3=Move On Alone
TTITLE4=Serenade To A Cuckoo
TTITLE5=Dharma For One
TTITLE6=It's Breaking Me Up
TTITLE7=Cat's Squirrel
TTITLE8=A Song For Jeffrey
TTITLE9=Round
EXTD=YEAR: 1968
EXTT0=
EXTT1=
EXTT2=
EXTT3=
EXTT4=
EXTT5=
EXTT6=
EXTT7=
EXTT8=
EXTT9=
PLAYORDER=
